<svg width="154" height="62" viewBox="0 0 154 62" fill="none" xmlns="http://www.w3.org/2000/svg">
<g id="&#208;&#187;&#208;&#190;&#208;&#179;&#208;&#190;">
<g id="&#208;&#161;&#208;&#187;&#208;&#190;&#208;&#185; 1">
<path id="Vector" d="M112.526 19.0533C112.133 19.0438 111.751 19.1845 111.458 19.4465C111.166 19.7086 110.985 20.0722 110.952 20.4631V35.3082C110.952 37.7966 108.649 39.7724 105.597 39.7724C102.545 39.7724 100.242 37.7966 100.242 35.3082V20.4631C100.212 20.0712 100.032 19.7061 99.7386 19.4435C99.4454 19.1809 99.062 19.0412 98.6681 19.0533C98.4728 19.0418 98.2771 19.0694 98.0926 19.1344C97.9081 19.1994 97.7386 19.3006 97.5939 19.432C97.4492 19.5633 97.3323 19.7222 97.2501 19.8993C97.1679 20.0764 97.122 20.2681 97.1152 20.4631V35.3082C97.1152 39.3345 100.81 42.5492 105.619 42.5492C110.427 42.5492 114.1 39.3452 114.1 35.3082V20.4631C114.078 20.0683 113.9 19.6982 113.605 19.434C113.31 19.1698 112.922 19.0329 112.526 19.0533Z" fill="#1B474C"/>
<path id="Vector_2" d="M123.836 28.8362C122.199 28.822 120.597 29.3145 119.252 30.246C119.252 28.3877 116.157 28.3877 116.157 30.246V47.1844C116.157 49.0534 119.252 49.0534 119.252 47.1844V41.1395C120.6 42.0653 122.2 42.5573 123.836 42.5493C128.12 42.5493 131.525 39.4735 131.525 35.6714C131.525 31.8693 128.077 28.8362 123.836 28.8362ZM123.836 39.8045C122.688 39.857 121.567 39.4555 120.714 38.6876C119.862 37.9196 119.348 36.8472 119.284 35.7034C119.406 34.5859 119.938 33.5525 120.777 32.8018C121.616 32.0511 122.703 31.6359 123.831 31.6359C124.958 31.6359 126.045 32.0511 126.884 32.8018C127.724 33.5525 128.255 34.5859 128.377 35.7034C128.302 36.8386 127.786 37.8996 126.937 38.6599C126.089 39.4202 124.976 39.8195 123.836 39.7725V39.8045Z" fill="#1B474C"/>
<path id="Vector_3" d="M40.4948 36.996C39.4834 38.0515 38.2258 38.8409 36.8341 39.2937C35.4423 39.7465 33.9599 39.8487 32.5189 39.5911C31.078 39.3335 29.7234 38.7241 28.5761 37.8174C27.4288 36.9107 26.5244 35.7348 25.9437 34.3947C25.363 33.0546 25.124 31.592 25.2481 30.1374C25.3721 28.6828 25.8554 27.2814 26.6547 26.0584C27.454 24.8354 28.5445 23.8287 29.8289 23.1282C31.1133 22.4278 32.5516 22.0553 34.0155 22.0441C35.2903 22.0386 36.5506 22.3143 37.7059 22.8517C38.8613 23.389 39.8831 24.1745 40.6982 25.152C40.9358 25.3767 41.2463 25.5093 41.5733 25.5255C41.9004 25.5418 42.2226 25.4408 42.4814 25.2407C42.7403 25.0407 42.9187 24.7548 42.9845 24.4349C43.0503 24.115 42.9991 23.7821 42.8401 23.4966C41.7785 22.177 40.4361 21.1091 38.9099 20.3703C37.3837 19.6315 35.7119 19.2402 34.0155 19.2246C30.9737 19.3164 28.0873 20.5859 25.9683 22.764C23.8492 24.9422 22.6641 27.8576 22.6641 30.8924C22.6641 33.9272 23.8492 36.8427 25.9683 39.0208C28.0873 41.199 30.9737 42.4685 34.0155 42.5603C35.627 42.5736 37.2231 42.2476 38.6995 41.6034C40.1759 40.9593 41.4993 40.0116 42.5831 38.8223C42.7189 38.6882 42.8255 38.5277 42.8964 38.3507C42.9673 38.1738 43.0008 37.9842 42.995 37.7937C42.9893 37.6032 42.9442 37.416 42.8627 37.2437C42.7812 37.0713 42.6651 36.9175 42.5214 36.7919C42.3777 36.6663 42.2097 36.5715 42.0277 36.5134C41.8457 36.4553 41.6537 36.4353 41.4636 36.4544C41.2734 36.4736 41.0893 36.5315 40.9227 36.6247C40.756 36.7179 40.6103 36.8443 40.4948 36.996Z" fill="#1B474C"/>
<path id="Vector_4" d="M49.019 39.8363C48.6487 39.7394 48.3227 39.5193 48.0948 39.2124C47.867 38.9056 47.751 38.5304 47.766 38.1489V20.6018C47.7357 20.2615 47.5788 19.9448 47.3261 19.7141C47.0733 19.4834 46.7431 19.3555 46.4005 19.3555C46.0579 19.3555 45.7277 19.4834 45.475 19.7141C45.2223 19.9448 45.0653 20.2615 45.0351 20.6018V38.1489C44.9801 39.2049 45.3197 40.2437 45.9884 41.0644C46.657 41.8851 47.6071 42.4293 48.6549 42.5918C50.5076 42.8588 50.9574 40.4024 49.019 39.8363Z" fill="#1B474C"/>
<path id="Vector_5" d="M61.4215 38.8116C60.6861 39.4585 59.7353 39.8089 58.7548 39.7941C58.2216 39.7984 57.6929 39.6965 57.1997 39.4944C56.7064 39.2922 56.2587 38.9939 55.8826 38.6169C55.5066 38.2399 55.2098 37.7918 55.0097 37.2989C54.8096 36.806 54.7102 36.2782 54.7173 35.7464C54.7163 35.0483 54.895 34.3616 55.2363 33.752C55.5776 33.1424 56.07 32.6303 56.6665 32.2648C57.2607 31.8626 57.9584 31.6397 58.6764 31.6227C59.3943 31.6056 60.1019 31.7952 60.7146 32.1687L58.6905 33.8347L57.0734 35.1804C55.7776 36.3552 56.8485 38.3844 58.3907 37.5407L60.8539 35.4047L63.5955 33.1085C63.7512 32.9693 63.8758 32.7989 63.9611 32.6084C64.0464 32.418 64.0905 32.2117 64.0905 32.0031C64.0905 31.7945 64.0464 31.5883 63.9611 31.3978C63.8758 31.2074 63.7512 31.037 63.5955 30.8978C62.4661 29.7674 60.9742 29.0689 59.3806 28.9244C57.787 28.78 56.1933 29.1987 54.878 30.1074C54.7602 30.2142 54.6102 30.289 54.4924 30.3958C53.6995 31.0438 53.0599 31.8585 52.6192 32.7816C52.1786 33.7047 51.9479 34.7134 51.9436 35.7358C51.9365 36.6358 52.1088 37.5284 52.4506 38.3614C52.7924 39.1945 53.2968 39.9516 53.9346 40.5885C54.5723 41.2255 55.3306 41.7297 56.1655 42.0719C57.0003 42.414 57.8951 42.5873 58.7976 42.5816C60.5412 42.5727 62.2182 41.9136 63.4991 40.734C64.7093 39.5165 62.8137 37.498 61.4215 38.8116Z" fill="#1B474C"/>
<path id="Vector_6" d="M72.7626 28.8359C71.8575 28.8387 70.9619 29.02 70.1272 29.3693C69.2926 29.7186 68.5355 30.229 67.8995 30.8712C67.2635 31.5134 66.7611 32.2747 66.4212 33.1113C66.0814 33.9479 65.9108 34.8433 65.9192 35.7459C65.9179 37.1113 66.3162 38.4475 67.0652 39.5906C67.6482 40.4689 68.4316 41.1968 69.3512 41.7147C70.2708 42.2327 71.3004 42.5259 72.3556 42.5703C72.484 42.5807 72.6129 42.5807 72.7412 42.5703C74.2425 42.5755 75.6994 42.0623 76.8643 41.1179V41.5237C76.8643 42.7305 79.5846 42.7305 79.5846 41.5237V35.5429C79.5537 33.7571 78.8221 32.0545 77.5466 30.8005C76.2712 29.5466 74.5536 28.8413 72.7626 28.8359ZM72.7626 39.7935C72.2298 39.7964 71.7017 39.6935 71.2092 39.4908C70.7166 39.2882 70.2694 38.9898 69.8937 38.6131C69.5179 38.2364 69.2211 37.7888 69.0205 37.2966C68.8198 36.8043 68.7194 36.2772 68.7251 35.7459C68.7273 34.9474 68.9668 34.1675 69.4133 33.5048C69.8599 32.8421 70.4935 32.3264 71.234 32.0228C71.9746 31.7192 72.7887 31.6414 73.5736 31.7992C74.3584 31.957 75.0787 32.3434 75.6434 32.9095C76.208 33.4756 76.5917 34.1959 76.7458 34.9794C76.8999 35.763 76.8176 36.5744 76.5092 37.3113C76.2009 38.0482 75.6803 38.6773 75.0135 39.1191C74.3466 39.561 73.5633 39.7957 72.7626 39.7935Z" fill="#1B474C"/>
<path id="Vector_7" d="M86.8562 28.8355C85.9294 28.8375 85.0121 29.0226 84.1574 29.3802C83.9868 29.1417 83.7444 28.9637 83.4655 28.872C83.1865 28.7803 82.8855 28.7796 82.6061 28.8701C82.3268 28.9606 82.0836 29.1375 81.9119 29.3752C81.7402 29.6129 81.649 29.8989 81.6514 30.1918V40.8718C81.6514 41.2343 81.7958 41.582 82.0529 41.8384C82.31 42.0948 82.6587 42.2388 83.0222 42.2388C83.3858 42.2388 83.7345 42.0948 83.9915 41.8384C84.2486 41.582 84.393 41.2343 84.393 40.8718V32.4667C85.0933 31.9105 85.961 31.6058 86.8562 31.6016C88.3556 31.6016 89.3194 32.3812 89.3194 33.4065V41.0213C89.3497 41.3616 89.5066 41.6783 89.7593 41.909C90.0121 42.1397 90.3423 42.2676 90.6849 42.2676C91.0275 42.2676 91.3577 42.1397 91.6104 41.909C91.8631 41.6783 92.0201 41.3616 92.0503 41.0213V33.4065C92.1039 30.854 89.962 28.8355 86.8562 28.8355Z" fill="#1B474C"/>
<path id="Vector_8" d="M153.791 27.4047C152.013 11.6198 138.037 3.97707e-05 122.09 3.97707e-05H31.8844C30.6891 -0.0018824 29.4948 0.0658727 28.3074 0.202958L27.4614 0.299078C23.4596 0.857364 19.5961 2.15008 16.0665 4.11181C11.7464 6.44506 8.05101 9.7784 5.29103 13.8317C2.53105 17.885 0.787088 22.5397 0.205723 27.4047C-0.288386 31.7423 0.140676 36.1351 1.46488 40.2961C2.78908 44.4571 4.97864 48.2927 7.89052 51.5523C10.8024 54.8119 14.3711 57.4223 18.3635 59.2129C22.3559 61.0035 26.6822 61.934 31.0598 61.9436H105.566C105.855 61.9436 106.133 61.9436 106.401 61.9436H108.714C115.044 62.2106 116.554 61.4951 119.724 60.5125C120.293 60.3538 120.851 60.1576 121.394 59.9251H108.918C107.847 59.9251 106.776 59.9251 105.587 59.9251H31.0598C24.4075 59.9472 17.9511 57.6812 12.7789 53.5092C7.6068 49.3371 4.03535 43.5143 2.66668 37.0223C1.29801 30.5303 2.21584 23.7662 5.26543 17.8704C8.31503 11.9746 13.3099 7.30768 19.4078 4.65649C22.4557 3.28194 25.7143 2.42984 29.0464 2.13603C29.9567 2.05059 30.8884 2.01855 31.8094 2.01855H122.155C137.341 2.01855 150.567 13.35 151.863 28.4514C152.536 35.9861 150.222 43.484 145.418 49.3375C140.613 55.1911 133.7 58.9344 126.16 59.7649C124.827 60.6695 123.389 61.4083 121.876 61.965H122.947C127.329 61.9643 131.661 61.039 135.659 59.2498C139.656 57.4606 143.229 54.8481 146.142 51.5839C149.055 48.3198 151.243 44.4778 152.561 40.3106C153.879 36.1433 154.298 31.745 153.791 27.4047Z" fill="#4DBBCE"/>
<path id="Vector_9" d="M141.217 33.5569L139.225 33.2578C138.739 39.8222 136.028 46.0265 131.538 50.8514C127.048 55.6762 121.046 58.8348 114.518 59.8081L113.115 59.9897L113.254 61.9868C115.16 61.7961 117.043 61.4242 118.877 60.8761C124.944 59.1278 130.333 55.5762 134.325 50.6952C138.316 45.8142 140.72 39.8356 141.217 33.5569Z" fill="#4DBBCE"/>
<path id="Vector_10" d="M140.671 28.2796C140.696 28.2486 140.728 28.2245 140.764 28.2098C140.801 28.195 140.84 28.1901 140.88 28.1955C140.919 28.2009 140.956 28.2165 140.987 28.2406C141.018 28.2647 141.042 28.2966 141.057 28.333L142.128 30.9282L143.199 33.5128C143.214 33.5491 143.22 33.5888 143.215 33.6279C143.21 33.667 143.195 33.7042 143.171 33.7356C143.147 33.767 143.115 33.7915 143.079 33.8068C143.042 33.8221 143.002 33.8275 142.963 33.8225L140.189 33.4273L137.416 33.0429C137.377 33.0372 137.341 33.0219 137.311 32.9984C137.28 32.9749 137.257 32.944 137.241 32.9086C137.226 32.8732 137.221 32.8346 137.225 32.7964C137.229 32.7582 137.243 32.7217 137.266 32.6904L138.99 30.4797L140.671 28.2796Z" fill="#4DBBCE"/>
</g>
</g>
</svg>
